<svg width="242" height="234" fill="none" xmlns="http://www.w3.org/2000/svg">
    <rect width="207" height="209" rx="10" fill="#fff" />
    <g clip-path="url(#a)">
        <path
            d="M92.19 85.001h.243V99.46h7.275v-7.607h7.281v-6.852h10.826v-.025h4.061V55.377h-7.275v7.674h-7.612v7.275h7.612v7.4h-7.612v-7.4h-7.28v7.4h-7.483v-22.23h7.276V25.898h-7.276v7.4h-7.28v14.798h7.28v7.281h-7.28v29.599h7.244V85Z"
            fill="#1D59F9" />
    </g>
    <path fill-rule="evenodd" clip-rule="evenodd"
        d="M41 25H25v15h16V25ZM26.102 180.256h51.425v-51.425H26.102v51.425Zm7.146-44.279h37.137v37.138H33.248v-37.138Zm7.41 7.409h22.318v22.318H40.658v-22.318ZM182.317 25H160v22.318h22.317V25ZM26.102 84.65h14.556v7.384H26.102V84.65ZM98.556 78H84v6.976h-6.33v.026h-7.42v7.389h7.42v7.069H62.975v22.142h7.275v-.005h14.908v-7.385H70.25v-7.363h14.908v7.358h7.276V99.46h-7.488V85.384h13.61V78ZM159 58h8v-7h14.928v14.831h-7.275v-7.22H167V65h-8v-7Zm14 8h-8v7h8v-7Zm-43 99.705v7.384h13.628v7.389h22.37v-7.389h-15.141v-14.784h-7.272v-7.534h7.276v7.529h7.282v7.399h7.275V158.3h-7.275l-.001-7.534h-7.281v-7.39h7.281v7.385h7.275v7.534h7.276v14.711h7.276V136.24h-7.271v7.72h-7.275v-7.72h-7.281v-14.7h-7.229v-7.4h-7.276v7.477h-7.229v21.77h-7.291v7.384h6.604v7.534h7.861v7.4H130ZM77.275 70H70v7.4h7.275V70ZM26.102 99.428h7.275v22.168h-7.275V99.428Zm124.754 36.564h-7.177v-7.099h7.182v7.099h-.005ZM121.928 77.83h-7.275v-7.219H107V63h14.928v14.83Zm-66.275-8h7.275V55h-.653v-6.827h7.276V26h-7.276v7.038H55V55h-7v7.611h7.653v7.22Zm-7.72 44.377h7.276v7.395h-7.275v-7.395ZM106.276 72H99v7.394h7.275V72ZM93 93h7.275v7.395H93V93Zm-37.79 14.174V85.001h-7.276v7.038h-7.276v22.168h7.276v-7.033h7.276Zm124.996 10.377h-22.173v-7.275H151v-6.802h-7V88.753l7.275-.005v-7.385h7.276V74h14.381v7.384h-7.276v7.364h-7.281v7.389h-7.1V103h21.892v7.276h7.039v7.275Zm-118-33H40.033v-7.275H33v-6.802h-7V55.753l7.275-.005v-7.384h7.276V41h14.38v7.384h-7.275v7.364h-7.28v7.389h-7.1V70h21.891v7.276h7.039v7.275Z"
        fill="url(#b)" />
    <path d="M165.654 88.753v7.384h7.276v-7.369h7.275v-7.384h-7.275v7.369h-7.276Z" fill="#D0D0D0" />
    <g filter="url(#c)">
        <path fill-rule="evenodd" clip-rule="evenodd"
            d="M121.822 33.173v-7.275H106.992v14.928h7.61v7.276h7.611v-7.276h-7.609v-7.653h7.218ZM70 33h7.276v14.701H70V33Zm80.604 27.175v7.355h7.176V75h-6.553v6.39h-14.69v7.177h-7.281V74h6.899v-6.47H129V52.715l14.285-.01v-7.25h-7.386V38h14.593v14.715H158v7.46h-7.396Zm-.031 7.355V74h-7.206v-6.47h7.206ZM63 55.4v7.384h13.628v7.389h22.37v-7.39h-15.14V48h-7.276v7.4H63Zm73.139 45.984v7.064H121.2v14.918h-7.275v7.399h-7.193v14.552H92v-14.552h7.457v-7.26H92v-7.384h7.457v-7.673h7.275v7.823h7.193v-7.823h-7.193v-7.384h22.126v-5.113h-14.766v-7.384h15.166V94h6.881v7.384ZM92 179.893h29v-29H92v29Zm5.5-23H115v17H97.5v-17Zm13.5 4h-9v9h9v-9Zm2-23h7.276v7.399H113v-7.399Zm-6.008-89.791h7.612v7.275h-7.612v-7.275ZM122 40.752V33.37h7.276V26h7.275v7.384h-7.275v7.369H122Z"
            fill="#1D59F9" />
    </g>
    <path
        d="m161.849 69.38-.585.895 12.043 7.881.585-.894-12.043-7.881ZM229.5 221.592s.481 3.327.54 3.829c.058.503 5.337-.296 5.337-.296l.428-3.962s-5.644-.042-6.305.429Z"
        fill="#220E27" />
    <path
        d="M229.986 224.998s-1.671 2.004-3.29 2.882c-1.619.873-4.158 1.222-5.115 2.127-.688.656-2.513 3.465 4.2 3.412 6.712-.059 9.95.396 10.669-.683.719-1.079-1.042-7.961-1.042-7.961s-1.592.572-5.432.228l.01-.005ZM191.701 221.592s.482 3.327.54 3.829c.058.503 5.337-.296 5.337-.296l.428-3.962s-5.644-.042-6.3.429h-.005Z"
        fill="#220E27" />
    <path
        d="M192.18 224.998s-1.671 2.005-3.29 2.883c-1.618.873-7.564 1.592-8.521 2.497-.688.655-1.836 3.284 7.612 3.036 6.712-.175 9.949.396 10.669-.683.719-1.079-1.042-7.96-1.042-7.96s-1.497.613-5.433.227h.005Z"
        fill="url(#d)" />
    <path
        d="M225.132 136.042s4.956 7.876 4.586 14.996c-.37 7.12 1.798 14.89 2.544 22.328.831 8.289 4.227 27.918 4.354 32.356.121 4.433-.529 18.599-.529 18.599l-6.803.153s-5.713-34.314-7.194-37.815c-1.481-3.502-8.818-28.464-9.061-31.267-.249-2.804 12.103-19.35 12.103-19.35Z"
        fill="url(#e)" />
    <path
        d="M199.037 137.11s-3.734 19.514-4.226 23.872c-.492 4.359-.82 21.09-1.069 23.809-.249 2.724-2.301 35.557-2.957 39.683h8.696s6.676-23.93 6.676-35.25 5.157-24.613 8.484-32.082c3.328-7.469 10.95-7.649 12.992-21.508 0 0-25.819-2.925-28.591 1.471l-.005.005Z"
        fill="url(#f)" />
    <path d="m161.285 70.292-.693-1.064 1.28.17-.587.894Z" fill="#1D5CCC" />
    <path
        d="M235.658 146.124s-.624 1.026-.703 1.862c-.064.661-.619 1.656-.863 2.201-.243.545-1.02 3.025-1.047 3.671-.011.264.577 1.925.492 2.454-.085.529-.386 1.587.09 1.656.476.069 1.016-.794 1.016-.794s-.048.492.359.677c.783.365 1.201.043 1.201.043s.291.539.651.608c.804.159 1.195-.164 1.195-.164s.354.302.905.291c.708-.016 1.005-.624 1.005-.624s.899.18 1.158-.238c.259-.418.217-.868.323-1.243.106-.381.026-3.804-1.138-6.274-1.163-2.465.297-4.872.297-4.872l-4.951.741.01.005Z"
        fill="url(#g)" />
    <path
        d="M234.522 156.857s-.08-3.073.73-3.729c.809-.656.904.534.904.534s-.111-1.174.772-1.322c.884-.148.99 1.174.99 1.174s.063-.762 1.005-.693c.693.053.788 1.275.788 1.275s.862-1.106 1.386-.064c.883 1.762.037 3.74.037 3.74s-.275.466-1.159.238c0 0-.592 1.19-1.915.333 0 0-1.354.746-1.846-.449 0 0-1.491.709-1.687-1.042l-.005.005Z"
        fill="url(#h)" />
    <path d="m236.154 153.588.053 4.311M237.918 153.519l.138 4.829M239.711 154.101l.259 3.914"
        stroke="#7D7D7D" stroke-width=".5" stroke-miterlimit="10" stroke-linecap="round" />
    <path
        d="M240.71 124.315c-.042-.698-1.878-7.786-3.988-14.875-2.767-9.315-4.671-14.26-5.655-14.71-1.751-.794-2.735-.069-4.697 1.391-2.841 2.105-1.508 5.544-1.397 5.819.169.566 5.3 17.672 7.035 23.988.328 1.19.942 8.607 1.439 14.563.386 4.655.609 7.305.709 7.627.249.815 4.57 1.624 7.125 2.032h.043a.265.265 0 0 0 .174-.064.277.277 0 0 0 .09-.206c-.011-.244-.809-24.259-.883-25.565h.005Z"
        fill="url(#i)" />
    <path
        d="M160 73.931s.116.683.312.952c0 0 .397.471.656.82.085.111.153.212.19.28.159.286.424.963.995 1.545s2.809 2.433 2.809 2.433l1.915-1.624 1.988-.888s-1.11-4.835-1.586-5.443a2.566 2.566 0 0 0-.143-.164c-.45-.471-.984-.635-1.243-.857-.096-.08-1.122-.82-1.487-.725-.508.132-.804.429-.92.767 0 0-.979.302-1.36.873 0 0-.909.248-1.184 1.1 0 0-.9.355-.937.926l-.005.005Z"
        fill="url(#j)" />
    <path
        d="M221.022 75.47c-.075-3.062-2.418-4.76-4.163-5.644 0 0-6.655-2.486-9.723 2.582-3.068 5.067-2.772 15.207.582 16.45.233.085.476.164.725.233 0 0 .275 1.799-.18 2.682-.46.883 8.622.91 8.622.91s.735-4.814 2.132-8.881v-.006c1.179-2.793 2.063-5.998 2.005-8.32v-.006Z"
        fill="url(#k)" />
    <path
        d="M218.017 89.033c-1.063-.418-8.955.392-9.553.519-.947.2-1 1.914-1.005 2.105v.249l.243.02c2.005.17 3.634.233 4.962.233 4.221 0 5.337-.65 5.395-.682l.127-.08v-2.295l-.169-.063v-.006Z"
        fill="#220E27" />
    <path
        d="M222.856 72.535c-1.058-2.063-3.296-2.407-3.703-2.455-1.666-.968-3.37-1.444-3.422-1.46-5.142-1.798-8.66.608-10.231 3.46-.999 1.814-1.163 3.729-.375 4.358 1.132.905.804 2.904.608 3.724a.653.653 0 0 0 .138.577.645.645 0 0 0 .55.233l.439-.027a.657.657 0 0 0 .508-.285l.513-.752a.64.64 0 0 0 .111-.322 7.5 7.5 0 0 1 .19-1.26c.085-.354.746-1.152 1.259-1.174.259-.02.466.223.614.688.317 1.005-.006 2.18-.418 2.946a.666.666 0 0 0 .185.83c.233.18.492.387.762.61 1.497 1.2 3.549 2.85 5.369 3.136.449.069.841.1 1.19.1 1.867 0 2.401-.846 2.412-.862.227-.29.45-.64.666-1.058 2.979-4.893 3.867-8.595 2.635-11.002v-.005Z"
        fill="url(#l)" />
    <path
        d="m229.479 111.979 3.036-6.4a.269.269 0 0 0 0-.222c-.566-1.265-.794-4.798-.958-7.374-.185-2.835-.227-3.137-.481-3.253-3.671-1.656-12.711-3.655-13.097-3.74-.021 0-.042-.005-.069-.005l-10.198.418s-.037 0-.053.005c-.074.021-7.485 1.867-12.685 2.555-3.121.164-11.812-3.163-12.409-3.391-.365-.27-4.227-3.094-5.168-4.115-.963-1.048-2.576-3.047-4.132-4.983-3.893-4.835-4.289-5.226-4.638-5.115-.228.074-5.29 2.666-5.544 3.644a.414.414 0 0 0 .053.339c.65 1.343 6.099 7.85 8.426 10.6 1.243 1.47 5.581 5.697 6.639 6.634 2.523 2.237 9.325 5.765 14.292 8.341 2.518 1.307 4.528 2.349 5.189 2.809.106 1.291 1.027 12.584.805 14.779-.037.381-.286 2.55-.63 5.544-1.439 12.584-2.973 26.062-2.893 26.665.026.217.116.873 9.907 1.375 2.502.127 5.454.222 8.226.222 2.502 0 4.861-.074 6.612-.269 6.897-.762 11.372-1.889 11.415-1.899a.261.261 0 0 0 .195-.297c-.031-.216-3.2-21.571-3.036-24.12.354-5.475 1.132-17.853 1.185-18.747h.011Z"
        fill="url(#m)" />
    <defs>
        <linearGradient id="d" x1="189.874" y1="232.716" x2="180.618" y2="224.781"
            gradientUnits="userSpaceOnUse">
            <stop offset=".131" stop-color="#220E27" />
            <stop offset="1" stop-color="#1D59F9" />
        </linearGradient>
        <linearGradient id="e" x1="226.375" y1="167.388" x2="213.151" y2="168.182"
            gradientUnits="userSpaceOnUse">
            <stop stop-color="#5A5B70" />
            <stop offset="1" stop-color="#2F447E" />
        </linearGradient>
        <linearGradient id="f" x1="205.744" y1="163.95" x2="192.785" y2="161.041"
            gradientUnits="userSpaceOnUse">
            <stop stop-color="#5A5B70" />
            <stop offset="1" stop-color="#1D59F9" />
        </linearGradient>
        <linearGradient id="g" x1="238.277" y1="149.139" x2="226.904" y2="145.966"
            gradientUnits="userSpaceOnUse">
            <stop stop-color="#fff" />
            <stop offset="1" stop-color="#1D59F9" />
        </linearGradient>
        <linearGradient id="h" x1="238.013" y1="156.281" x2="232.194" y2="161.306"
            gradientUnits="userSpaceOnUse">
            <stop stop-color="#fff" />
            <stop offset="1" stop-color="#1D59F9" />
        </linearGradient>
        <linearGradient id="i" x1="235.103" y1="117.93" x2="226.438" y2="119.701"
            gradientUnits="userSpaceOnUse">
            <stop stop-color="#220E27" />
            <stop offset="1" stop-color="#1D59F9" />
        </linearGradient>
        <linearGradient id="j" x1="163.692" y1="74.026" x2="153.907" y2="75.878"
            gradientUnits="userSpaceOnUse">
            <stop stop-color="#fff" />
            <stop offset="1" stop-color="#1D59F9" />
        </linearGradient>
        <linearGradient id="k" x1="210.771" y1="80.903" x2="197.547" y2="79.845"
            gradientUnits="userSpaceOnUse">
            <stop offset=".046" stop-color="#fff" />
            <stop offset="1" stop-color="#1D59F9" />
        </linearGradient>
        <linearGradient id="l" x1="214.01" y1="68" x2="203.099" y2="70.323"
            gradientUnits="userSpaceOnUse">
            <stop stop-color="#5A5B70" />
            <stop offset="1" stop-color="#1D59F9" />
        </linearGradient>
        <linearGradient id="m" x1="215.53" y1="116.872" x2="185.339" y2="110.213"
            gradientUnits="userSpaceOnUse">
            <stop stop-color="#220E27" />
            <stop offset=".96" stop-color="#1D59F9" />
        </linearGradient>
        <radialGradient id="b" cx="0" cy="0" r="1" gradientUnits="userSpaceOnUse"
            gradientTransform="matrix(0 -100 101.183 0 104 162)">
            <stop stop-color="#6791FF" />
            <stop offset="1" stop-color="#D8D8D8" />
        </radialGradient>
        <clipPath id="a">
            <path fill="#fff" transform="translate(85 26)" d="M0 0h37v29H0z" />
        </clipPath>
        <filter id="c" x="57" y="23.898" width="107" height="165.995" filterUnits="userSpaceOnUse"
            color-interpolation-filters="sRGB">
            <feFlood flood-opacity="0" result="BackgroundImageFix" />
            <feColorMatrix in="SourceAlpha" values="0 0 0 0 0 0 0 0 0 0 0 0 0 0 0 0 0 0 127 0"
                result="hardAlpha" />
            <feOffset dy="4" />
            <feGaussianBlur stdDeviation="3" />
            <feComposite in2="hardAlpha" operator="out" />
            <feColorMatrix values="0 0 0 0 0.113725 0 0 0 0 0.34902 0 0 0 0 0.976471 0 0 0 0.15 0" />
            <feBlend in2="BackgroundImageFix" result="effect1_dropShadow_136_4657" />
            <feBlend in="SourceGraphic" in2="effect1_dropShadow_136_4657" result="shape" />
        </filter>
    </defs>
</svg>